<?xml version="1.0" encoding="utf-8"?>
<!-- Generator: Adobe Illustrator 19.2.1, SVG Export Plug-In . SVG Version: 6.00 Build 0)  -->
<svg version="1.1" id="Layer_1" xmlns="http://www.w3.org/2000/svg" xmlns:xlink="http://www.w3.org/1999/xlink" x="0px" y="0px"
	 viewBox="0 0 90.3 94" style="enable-background:new 0 0 90.3 94;" xml:space="preserve">
<style type="text/css">
	.st0{fill:#FFFFFF;stroke:#CCCCCC;stroke-width:0.25;stroke-miterlimit:10;}
</style>
<title>frok</title>
<g>
	<path class="st0" d="M1,91.6c-0.3-0.7-0.6-1.4-0.8-2.1c-0.4-1.5-0.2-2.8,1-3.9c11-10.6,22.1-21.1,33.1-31.7
		c5.7-5.5,11.5-11,17.2-16.4c0.6-0.6,1.5-0.8,2.1-1.3c1-0.8,1.9-1.6,2.7-2.6c1.1-1.5,1.8-3.3,2-5.2c0.2-1.4,0.9-2.7,1.4-4.2
		c-0.4-0.2-0.9-0.5-1.5-0.8c-4.3-2-8.4-4.2-12.1-7.2c-1.7-1.4-3.3-2.8-4.3-4.7c-0.4-0.7-0.8-1.4-0.8-2.2c-0.1-1.1-0.6-1.9-1.3-2.7
		c-1.1-1.3-2.1-2.6-3.1-4.1c-0.5-0.6-0.4-1.5,0.2-2c0,0,0,0,0.1-0.1C37.6-0.2,38.4,0,39,0.7c0.5,0.7,0.9,1.4,1.4,2s1,1.2,1.6,1.9
		c0.4-0.4,0.8-0.8,1.2-1.1C45.8,1,48.8-0.2,52.5,1c2.1,0.7,3.5,2.2,3.9,4.5c0.4,1.9-0.2,3.5-1.7,4.7c-1.8,1.5-4,1.8-6.2,1.3
		c-1.2-0.2-2.3-0.6-3.6-1c1.6,1.9,3.5,3.6,5.5,5c4.5,3.1,9.5,5.2,14.4,7.7c4.5,2.2,9,4.4,13.5,6.7c0.2,0.1,0.3,0.2,0.5,0.3
		c0.8,0.5,1,1.3,0.6,2c-0.4,0.7-1.3,0.9-2,0.6c-1-0.4-2-0.9-3-1.5c-0.7-0.4-1-0.2-1.5,0.3c-1.5,1.5-3.2,2.9-4.9,4.1
		c-0.9,0.6-2,1-3,1.1c-2.4,0.3-4.6,1.3-6.4,2.8c-0.3,0.3-0.6,0.6-0.8,0.9c-0.5,0.7-0.9,1.6-1.5,2.2c-7.7,8-15.3,16-23,24
		c-8.1,8.4-16.2,16.9-24.3,25.3c-1.9,2-2.8,2.5-6.2,1.1c-0.2-0.1-0.4-0.2-0.6-0.3L1,91.6z M44.1,6.8c1.6,0.6,2.9,1.4,4.4,1.7
		c1,0.2,2.1,0.2,3.1,0c1.6-0.3,2.3-1.6,1.6-3.1c-0.6-1.4-1.8-1.8-3.1-1.9C47.7,3.3,45.9,4.7,44.1,6.8z"/>
	<path class="st0" d="M88.1,11.4c0.1,1-0.4,1.7-1.1,2.4c-1.7,1.6-3.3,3.3-4.9,4.9c1.3,1.1,1.5,1.1,2.6,0c1-1,2-2,3-3
		c0.8-0.8,1.6-0.8,2.2-0.1c0.6,0.6,0.5,1.4-0.2,2.2c-1,1-2,2.1-3,3.1c0,0.1-0.1,0.2-0.1,0.2c0.2,0.1,0.5,0.3,0.7,0.4
		c0.8,0.5,1.1,1.3,0.7,2c-0.4,0.7-1.2,1-2.1,0.6c-3.2-1.5-6.3-3.1-9.5-4.7l-12.5-6.1c-1.1-0.5-1.4-1.3-1-2.2c0.4-0.8,1.2-1,2.3-0.5
		c0.8,0.4,1.7,0.8,2.4,1.2c0.6,0.3,1,0.2,1.5-0.2c2.4-2.4,4.8-4.9,7.3-7.3c0.3-0.3,0.5-0.5,0.8-0.7c0.6-0.4,1.3-0.4,1.8,0.2
		c0.5,0.5,0.6,1.3,0.2,1.8c-0.2,0.3-0.4,0.5-0.7,0.8c-2.4,2.4-4.8,4.8-7.3,7.3c0.8,0.4,1.5,0.8,2.3,1.1c0.2,0.1,0.6-0.2,0.8-0.4
		c2.1-2.1,4.2-4.2,6.4-6.3c0.3-0.3,0.6-0.7,0.9-0.8C82.2,7,82.9,7,83.2,7.3c0.3,0.3,0.5,1,0.4,1.5c0,0.4-0.4,0.7-0.7,1
		c-1.8,1.9-3.7,3.7-5.5,5.5l-0.9,0.9c0.7,0.4,1.4,0.8,2.2,1.1c0.2,0.1,0.7-0.2,0.9-0.4c1.8-1.8,3.6-3.5,5.4-5.4
		c0.7-0.7,1.3-1.1,2.3-1L88.1,11.4z"/>
	<path class="st0" d="M57.5,18.5c-0.6-0.6-0.7-1.3-0.2-1.9c0.4-0.7,1.3-0.9,1.9-0.5c1.9,0.9,3.8,1.9,5.8,2.8l13.2,6.5
		c1.1,0.5,2.2,1.1,3.3,1.6c0.9,0.5,1.3,1.3,0.8,2.1c-0.4,0.8-1.3,1-2.2,0.5l-13.4-6.6c-2.9-1.4-5.8-2.8-8.6-4.3
		C57.9,18.8,57.7,18.7,57.5,18.5z"/>
	<path class="st0" d="M84.8,26.9c-0.5,0.4-1.2,0.4-1.8,0.1c-4.1-2-8.2-4-12.3-6.1l-9.6-4.7c-0.2-0.1-0.3-0.2-0.5-0.3
		c-0.7-0.5-1-1.2-0.7-1.9c0.3-0.7,1.2-1,1.9-0.7c0,0,0.1,0,0.1,0c1.8,0.9,3.6,1.8,5.4,2.6c5.6,2.8,11.2,5.5,16.7,8.3
		C85.4,24.9,85.7,26,84.8,26.9z"/>
</g>
</svg>
